<?xml version="1.0" encoding="utf-8"?>
<!-- Generator: Adobe Illustrator 27.8.1, SVG Export Plug-In . SVG Version: 6.00 Build 0)  -->
<svg version="1.1" xmlns="http://www.w3.org/2000/svg" xmlns:xlink="http://www.w3.org/1999/xlink" x="0px" y="0px"
	 viewBox="0 0 530.5 267" style="enable-background:new 0 0 530.5 267;" xml:space="preserve">
<style type="text/css">
	.st0{fill:none;}
	.st1{fill:#BFB8AE;}
	.st2{fill:#8D4200;}
	.st3{fill:#FFFFFF;}
	.st4{fill:#C31500;stroke:#000000;stroke-miterlimit:10;}
	.st5{stroke:#000000;stroke-miterlimit:10;}
	.st6{fill:#090800;}
	.st7{fill:#BF9B93;}
	.st8{fill:#0D0D0D;}
	.st9{fill:#FFFFFF;stroke:#000000;stroke-miterlimit:10;}
	.st10{fill:#0A0051;stroke:#000000;stroke-miterlimit:10;}
	.st11{fill:none;stroke:#000000;stroke-miterlimit:10;}
</style>
<g id="Laag_2">
	<g>
		<path class="st0" d="M378.52,127.53c-0.2-0.01-0.35-0.09-0.48-0.18c-0.11-0.01-0.23-0.03-0.35-0.06
			C377.92,127.43,378.21,127.51,378.52,127.53z"/>
		<path class="st0" d="M377.68,127.1c-0.04-0.03-0.09-0.05-0.14-0.07c0.01,0,0.01,0.01,0.02,0.01
			C377.6,127.07,377.64,127.09,377.68,127.1z"/>
		<path class="st1" d="M376.47,125.23c0-0.04,0.01-0.07,0.01-0.11c-0.01,0-0.02,0-0.02,0C376.47,125.16,376.47,125.2,376.47,125.23z
			"/>
		<polygon class="st1" points="369.32,107.96 369.17,108.28 369.34,108 		"/>
		<path class="st1" d="M357.17,157.35c0.81,0.32,1.63,0.57,2.42,0.75c-1.74-0.5-3.4-1.19-4.84-1.95
			C355.52,156.6,356.34,157.02,357.17,157.35z"/>
		<polygon class="st1" points="384.68,108.46 384.45,107.96 384.34,108.18 384.43,108.03 		"/>
		<path class="st1" d="M389.5,139.01v-0.02v-23.11c0-1.74-1.15-3.22-2.73-3.73l0.03,0.05l-4.79-0.04l0.11-0.19h-10.49l0.1,0.17
			l-4.41-0.04c-1.68,0.44-2.92,1.97-2.92,3.78v39.36c0,0.28,0.03,0.56,0.09,0.82c0.91,0.95,1.45,1.79,1.46,2.29
			c0.66,0.5,1.48,0.8,2.36,0.8h17.28c2.16,0,3.91-1.75,3.91-3.91v-14.14c0.07,0.04,0.15,0.08,0.22,0.12
			c-0.08-0.06-0.15-0.12-0.22-0.17V139.01z M369.95,118.96c0.72,0,1.3,0.58,1.3,1.3c0,0.72-0.58,1.3-1.3,1.3s-1.3-0.58-1.3-1.3
			C368.65,119.54,369.23,118.96,369.95,118.96z M367.25,126.19l4.11-0.24l0.02,0.41l-4.11,0.24L367.25,126.19z M367.6,129.52
			l-0.14-0.39l3.85-1.44l0.14,0.39L367.6,129.52z M371.37,139.94c-0.19,0.59-0.64,1.41-0.98,1.37c-0.28-0.03-0.4-0.63-0.49-1.1
			c-0.16-0.8-0.12-1.54,0-2.19l1.47-0.14C371.51,138.35,371.64,139.1,371.37,139.94z M371.49,124.83l-3.89-1.34l0.13-0.39l3.89,1.34
			L371.49,124.83z M378.52,127.53c-0.31-0.02-0.59-0.1-0.83-0.24c-0.18-0.05-0.37-0.12-0.53-0.24c-0.38-0.28-0.62-0.74-0.68-1.28
			c-0.05,0.54-0.26,1-0.59,1.28c-0.49,0.41-1.19,0.3-1.2,0.27c0-0.02,0.39-0.02,0.84-0.27c0.4-0.23,0.67-0.56,0.84-0.82l-0.07-1.16
			c-0.22-0.12-0.37-0.38-0.37-0.69c0-0.42,0.28-0.75,0.62-0.75c0.34,0,0.62,0.34,0.62,0.75c0,0.35-0.2,0.65-0.47,0.73l-0.08,1.12
			c0.19,0.26,0.49,0.58,0.94,0.81c0.05,0.02,0.09,0.04,0.14,0.07c0.46,0.2,0.85,0.2,0.84,0.22c0,0.01-0.21,0.05-0.49,0.02
			C378.17,127.44,378.32,127.52,378.52,127.53z M381.95,124.41l3.29-1.34l0.11,0.39l-3.29,1.34L381.95,124.41z M385.36,129.49
			l-3.26-1.44l0.12-0.39l3.26,1.44L385.36,129.49z M385.63,126.57l-3.47-0.24l0.02-0.41l3.47,0.24L385.63,126.57z M384.49,121.7
			c-0.8,0-1.44-0.64-1.44-1.44c0-0.8,0.64-1.44,1.44-1.44s1.44,0.64,1.44,1.44C385.93,121.06,385.29,121.7,384.49,121.7z"/>
		<path class="st1" d="M394.71,131.16c-1.44,0-2.61,1.17-2.61,2.61c0,0.91,0.47,1.72,1.19,2.18l-1.94,4.13
			c0.22,0.21,0.37,0.4,0.48,0.55c0.37,0.53,0.31,0.74,0.28,0.82c0.01-0.01,0.02-0.01,0.02-0.02c0.09-0.09,0.12-0.2,0.11-0.32
			c-0.02-0.14-0.12-0.29-0.26-0.43l2.07-4.4c0.21,0.06,0.44,0.09,0.67,0.09c1.44,0,2.61-1.17,2.61-2.61
			C397.31,132.33,396.15,131.16,394.71,131.16z"/>
		<polygon points="371.63,111.96 369.36,107.96 369.34,108 369.17,108.28 366.93,112.09 367.32,112.1 371.72,112.13 		"/>
		<polygon points="386.8,112.2 386.77,112.15 384.68,108.46 384.43,108.03 384.34,108.18 382.12,111.96 382,112.16 		"/>
		<circle cx="369.95" cy="120.26" r="1.3"/>
		<circle cx="384.49" cy="120.26" r="1.44"/>
		<path d="M378.53,127.32c0-0.02-0.39-0.02-0.84-0.22c-0.04-0.02-0.08-0.03-0.12-0.05c-0.01,0-0.01-0.01-0.02-0.01
			c-0.44-0.23-0.74-0.55-0.94-0.81l0.08-1.12c0.27-0.08,0.47-0.38,0.47-0.73c0-0.42-0.28-0.75-0.62-0.75
			c-0.34,0-0.62,0.34-0.62,0.75c0,0.31,0.15,0.57,0.37,0.69l0.07,1.16c-0.17,0.26-0.44,0.6-0.84,0.82
			c-0.44,0.25-0.84,0.26-0.84,0.27c0,0.03,0.71,0.13,1.2-0.27c0.33-0.28,0.54-0.74,0.59-1.28c0.06,0.54,0.3,1,0.68,1.28
			c0.16,0.12,0.35,0.2,0.53,0.24c0.12,0.03,0.24,0.05,0.35,0.06C378.31,127.37,378.52,127.34,378.53,127.32z M376.47,125.23
			c0-0.04-0.01-0.07-0.01-0.11c0.01,0,0.02,0,0.02,0C376.48,125.16,376.48,125.2,376.47,125.23z"/>
		<rect x="369.41" y="121.91" transform="matrix(0.3256 -0.9455 0.9455 0.3256 132.0543 433.0694)" width="0.41" height="4.11"/>
		<rect x="367.4" y="128.4" transform="matrix(0.9368 -0.3498 0.3498 0.9368 -21.647 137.3773)" width="4.11" height="0.41"/>
		<rect x="367.26" y="126.07" transform="matrix(0.9983 -0.0574 0.0574 0.9983 -6.6435 21.4215)" width="4.11" height="0.41"/>
		<polygon points="385.24,123.07 381.95,124.41 382.07,124.8 385.36,123.46 		"/>
		<polygon points="382.1,128.05 385.36,129.49 385.48,129.11 382.22,127.67 		"/>
		<polygon points="382.16,126.33 385.63,126.57 385.65,126.16 382.18,125.92 		"/>
		<path d="M352.14,150.98c-1.09,0.13-1.93,0.22-2.11,0.74c-0.32,0.95,1.7,2.83,4.72,4.42c1.44,0.76,3.1,1.46,4.84,1.95
			c1.56,0.45,3.19,0.73,4.77,0.76c1.24,0.02,1.47-0.13,1.55-0.3c0.03-0.06,0.04-0.14,0.04-0.22c-0.01-0.5-0.55-1.34-1.46-2.29
			C362.1,153.57,357.13,150.41,352.14,150.98z"/>
		<path d="M391.83,140.63c-0.11-0.15-0.26-0.34-0.48-0.55c-0.38-0.36-0.97-0.77-1.85-1.1v0.02v2.03c0.06,0.06,0.14,0.11,0.22,0.17
			c0.31,0.23,0.74,0.46,1.29,0.51c0.16,0.01,0.93,0.08,1.1-0.27c0,0,0,0,0,0C392.14,141.37,392.2,141.15,391.83,140.63z"/>
		<path d="M369.9,138.02c-0.12,0.66-0.16,1.4,0,2.19c0.09,0.46,0.21,1.06,0.49,1.1c0.35,0.04,0.79-0.78,0.98-1.37
			c0.27-0.84,0.14-1.59,0-2.06L369.9,138.02z"/>
	</g>
	<g>
		<path class="st0" d="M97.77,127.53c-0.2-0.01-0.35-0.09-0.48-0.18c-0.11-0.01-0.23-0.03-0.35-0.06
			C97.18,127.43,97.46,127.51,97.77,127.53z"/>
		<path class="st0" d="M96.93,127.1c-0.04-0.03-0.09-0.05-0.14-0.07c0.01,0,0.01,0.01,0.02,0.01
			C96.86,127.07,96.9,127.09,96.93,127.1z"/>
		<path class="st1" d="M95.73,125.23c0-0.04,0.01-0.07,0.01-0.11c-0.01,0-0.02,0-0.02,0C95.72,125.16,95.72,125.2,95.73,125.23z"/>
		<polygon class="st1" points="88.58,107.96 88.43,108.28 88.59,108 		"/>
		<path class="st1" d="M76.43,157.35c0.81,0.32,1.63,0.57,2.42,0.75c-1.74-0.5-3.4-1.19-4.84-1.95
			C74.77,156.6,75.59,157.02,76.43,157.35z"/>
		<polygon class="st1" points="103.93,108.46 103.7,107.96 103.6,108.18 103.69,108.03 		"/>
		<path class="st1" d="M108.75,139.01v-0.02v-23.11c0-1.74-1.15-3.22-2.73-3.73l0.03,0.05l-4.79-0.04l0.11-0.19H90.88l0.1,0.17
			l-4.41-0.04c-1.68,0.44-2.92,1.97-2.92,3.78v39.36c0,0.28,0.03,0.56,0.09,0.82c0.91,0.95,1.45,1.79,1.46,2.29
			c0.66,0.5,1.48,0.8,2.36,0.8h17.28c2.16,0,3.91-1.75,3.91-3.91v-14.14c0.07,0.04,0.15,0.08,0.22,0.12
			c-0.08-0.06-0.15-0.12-0.22-0.17V139.01z M89.21,118.96c0.72,0,1.3,0.58,1.3,1.3s-0.58,1.3-1.3,1.3s-1.3-0.58-1.3-1.3
			S88.49,118.96,89.21,118.96z M86.51,126.19l4.11-0.24l0.02,0.41l-4.11,0.24L86.51,126.19z M86.85,129.52l-0.14-0.39l3.85-1.44
			l0.14,0.39L86.85,129.52z M90.63,139.94c-0.19,0.59-0.64,1.41-0.98,1.37c-0.28-0.03-0.4-0.63-0.49-1.1c-0.16-0.8-0.12-1.54,0-2.19
			l1.47-0.14C90.76,138.35,90.9,139.1,90.63,139.94z M90.74,124.83l-3.89-1.34l0.13-0.39l3.89,1.34L90.74,124.83z M97.77,127.53
			c-0.31-0.02-0.59-0.1-0.83-0.24c-0.18-0.05-0.37-0.12-0.53-0.24c-0.38-0.28-0.62-0.74-0.68-1.28c-0.05,0.54-0.26,1-0.59,1.28
			c-0.49,0.41-1.19,0.3-1.2,0.27c0-0.02,0.39-0.02,0.84-0.27c0.4-0.23,0.67-0.56,0.84-0.82l-0.07-1.16
			c-0.22-0.12-0.37-0.38-0.37-0.69c0-0.42,0.28-0.75,0.62-0.75s0.62,0.34,0.62,0.75c0,0.35-0.2,0.65-0.47,0.73l-0.08,1.12
			c0.19,0.26,0.49,0.58,0.94,0.81c0.05,0.02,0.09,0.04,0.14,0.07c0.46,0.2,0.85,0.2,0.84,0.22c0,0.01-0.21,0.05-0.49,0.02
			C97.42,127.44,97.57,127.52,97.77,127.53z M101.21,124.41l3.29-1.34l0.11,0.39l-3.29,1.34L101.21,124.41z M104.61,129.49
			l-3.26-1.44l0.12-0.39l3.26,1.44L104.61,129.49z M104.88,126.57l-3.47-0.24l0.02-0.41l3.47,0.24L104.88,126.57z M103.74,121.7
			c-0.8,0-1.44-0.64-1.44-1.44c0-0.8,0.64-1.44,1.44-1.44s1.44,0.64,1.44,1.44C105.18,121.06,104.54,121.7,103.74,121.7z"/>
		<path class="st1" d="M113.96,131.17c-1.44,0-2.61,1.17-2.61,2.61c0,0.91,0.47,1.72,1.19,2.18l-1.94,4.13
			c0.22,0.21,0.37,0.4,0.48,0.55c0.37,0.53,0.31,0.74,0.28,0.82c0.01-0.01,0.02-0.01,0.02-0.02c0.09-0.09,0.12-0.2,0.11-0.32
			c-0.02-0.14-0.12-0.29-0.26-0.43l2.07-4.4c0.21,0.06,0.44,0.09,0.67,0.09c1.44,0,2.61-1.17,2.61-2.61
			C116.57,132.33,115.4,131.17,113.96,131.17z"/>
		<polygon points="90.88,111.97 88.61,107.96 88.59,108 88.43,108.28 86.18,112.09 86.57,112.1 90.97,112.13 		"/>
		<polygon points="106.05,112.2 106.02,112.15 103.93,108.46 103.69,108.03 103.6,108.18 101.37,111.97 101.26,112.16 		"/>
		<circle cx="89.21" cy="120.26" r="1.3"/>
		<circle cx="103.74" cy="120.26" r="1.44"/>
		<path d="M97.78,127.33c0-0.02-0.39-0.02-0.84-0.22c-0.04-0.02-0.08-0.03-0.12-0.05c-0.01,0-0.01-0.01-0.02-0.01
			c-0.44-0.23-0.74-0.55-0.94-0.81l0.08-1.12c0.27-0.08,0.47-0.38,0.47-0.73c0-0.42-0.28-0.75-0.62-0.75s-0.62,0.34-0.62,0.75
			c0,0.31,0.15,0.57,0.37,0.69l0.07,1.16c-0.17,0.26-0.44,0.6-0.84,0.82c-0.44,0.25-0.84,0.26-0.84,0.27c0,0.03,0.71,0.13,1.2-0.27
			c0.33-0.28,0.54-0.74,0.59-1.28c0.06,0.54,0.3,1,0.68,1.28c0.16,0.12,0.35,0.2,0.53,0.24c0.12,0.03,0.24,0.05,0.35,0.06
			C97.57,127.37,97.78,127.34,97.78,127.33z M95.73,125.23c0-0.04-0.01-0.07-0.01-0.11c0.01,0,0.02,0,0.02,0
			C95.73,125.16,95.73,125.2,95.73,125.23z"/>
		<rect x="88.66" y="121.91" transform="matrix(0.3256 -0.9455 0.9455 0.3256 -57.2806 167.6224)" width="0.41" height="4.11"/>
		<rect x="86.65" y="128.41" transform="matrix(0.9368 -0.3498 0.3498 0.9368 -39.388 39.161)" width="4.11" height="0.41"/>
		<rect x="86.52" y="126.07" transform="matrix(0.9983 -0.0574 0.0574 0.9983 -7.1071 5.2959)" width="4.11" height="0.41"/>
		<polygon points="104.5,123.07 101.21,124.41 101.32,124.8 104.61,123.46 		"/>
		<polygon points="101.35,128.05 104.61,129.49 104.73,129.11 101.47,127.67 		"/>
		<polygon points="101.41,126.34 104.88,126.57 104.9,126.16 101.43,125.93 		"/>
		<path d="M71.39,150.98c-1.09,0.13-1.93,0.22-2.11,0.74c-0.32,0.95,1.7,2.83,4.72,4.42c1.44,0.76,3.1,1.46,4.84,1.95
			c1.56,0.45,3.19,0.73,4.77,0.76c1.24,0.02,1.47-0.13,1.55-0.3c0.03-0.06,0.04-0.14,0.04-0.22c-0.01-0.5-0.55-1.34-1.46-2.29
			C81.35,153.58,76.38,150.41,71.39,150.98z"/>
		<path d="M111.08,140.63c-0.11-0.15-0.26-0.34-0.48-0.55c-0.38-0.36-0.97-0.77-1.85-1.1v0.02v2.03c0.06,0.06,0.14,0.11,0.22,0.17
			c0.31,0.23,0.74,0.46,1.29,0.51c0.16,0.01,0.93,0.08,1.1-0.27c0,0,0,0,0,0C111.39,141.37,111.45,141.15,111.08,140.63z"/>
		<path d="M89.16,138.02c-0.12,0.66-0.16,1.4,0,2.19c0.09,0.46,0.21,1.06,0.49,1.1c0.35,0.04,0.79-0.78,0.98-1.37
			c0.27-0.84,0.14-1.59,0-2.06L89.16,138.02z"/>
	</g>
	<g>
		<path class="st0" d="M491.77,112.53c-0.2-0.01-0.35-0.09-0.48-0.18c-0.11-0.01-0.23-0.03-0.35-0.06
			C491.18,112.43,491.46,112.51,491.77,112.53z"/>
		<path class="st0" d="M490.93,112.1c-0.04-0.03-0.09-0.05-0.14-0.07c0.01,0,0.01,0.01,0.02,0.01
			C490.86,112.07,490.9,112.09,490.93,112.1z"/>
		<path class="st1" d="M489.73,110.23c0-0.04,0.01-0.07,0.01-0.11c-0.01,0-0.02,0-0.02,0C489.72,110.16,489.72,110.2,489.73,110.23z
			"/>
		<polygon class="st1" points="482.58,92.96 482.43,93.28 482.59,93 		"/>
		<path class="st1" d="M470.43,142.35c0.81,0.32,1.63,0.57,2.42,0.75c-1.74-0.5-3.4-1.19-4.84-1.95
			C468.77,141.6,469.59,142.02,470.43,142.35z"/>
		<polygon class="st1" points="497.93,93.46 497.7,92.96 497.6,93.18 497.69,93.03 		"/>
		<path class="st1" d="M502.75,124.01v-0.02v-23.11c0-1.74-1.15-3.22-2.73-3.73l0.03,0.05l-4.79-0.04l0.11-0.19h-10.49l0.1,0.17
			l-4.41-0.04c-1.68,0.44-2.92,1.97-2.92,3.78v39.36c0,0.28,0.03,0.56,0.09,0.82c0.91,0.95,1.45,1.79,1.46,2.29
			c0.66,0.5,1.48,0.8,2.36,0.8h17.28c2.16,0,3.91-1.75,3.91-3.91v-14.14c0.07,0.04,0.15,0.08,0.22,0.12
			c-0.08-0.06-0.15-0.12-0.22-0.17V124.01z M483.21,103.96c0.72,0,1.3,0.58,1.3,1.3s-0.58,1.3-1.3,1.3s-1.3-0.58-1.3-1.3
			S482.49,103.96,483.21,103.96z M480.51,111.19l4.11-0.24l0.02,0.41l-4.11,0.24L480.51,111.19z M480.85,114.52l-0.14-0.39
			l3.85-1.44l0.14,0.39L480.85,114.52z M484.63,124.94c-0.19,0.59-0.64,1.41-0.98,1.37c-0.28-0.03-0.4-0.63-0.49-1.1
			c-0.16-0.8-0.12-1.54,0-2.19l1.47-0.14C484.76,123.35,484.9,124.1,484.63,124.94z M484.74,109.83l-3.89-1.34l0.13-0.39l3.89,1.34
			L484.74,109.83z M491.77,112.53c-0.31-0.02-0.59-0.1-0.83-0.24c-0.18-0.05-0.37-0.12-0.53-0.24c-0.38-0.28-0.62-0.74-0.68-1.28
			c-0.05,0.54-0.26,1-0.59,1.28c-0.49,0.41-1.19,0.3-1.2,0.27c0-0.02,0.39-0.02,0.84-0.27c0.4-0.23,0.67-0.56,0.84-0.82l-0.07-1.16
			c-0.22-0.12-0.37-0.38-0.37-0.69c0-0.42,0.28-0.75,0.62-0.75c0.34,0,0.62,0.34,0.62,0.75c0,0.35-0.2,0.65-0.47,0.73l-0.08,1.12
			c0.19,0.26,0.49,0.58,0.94,0.81c0.05,0.02,0.09,0.04,0.14,0.07c0.46,0.2,0.85,0.2,0.84,0.22c0,0.01-0.21,0.05-0.49,0.02
			C491.42,112.44,491.57,112.52,491.77,112.53z M495.21,109.41l3.29-1.34l0.11,0.39l-3.29,1.34L495.21,109.41z M498.61,114.49
			l-3.26-1.44l0.12-0.39l3.26,1.44L498.61,114.49z M498.88,111.57l-3.47-0.24l0.02-0.41l3.47,0.24L498.88,111.57z M497.74,106.7
			c-0.8,0-1.44-0.64-1.44-1.44c0-0.8,0.64-1.44,1.44-1.44c0.8,0,1.44,0.64,1.44,1.44C499.18,106.06,498.54,106.7,497.74,106.7z"/>
		<path class="st1" d="M507.96,116.17c-1.44,0-2.61,1.17-2.61,2.61c0,0.91,0.47,1.72,1.19,2.18l-1.94,4.13
			c0.22,0.21,0.37,0.4,0.48,0.55c0.37,0.53,0.31,0.74,0.28,0.82c0.01-0.01,0.02-0.01,0.02-0.02c0.09-0.09,0.12-0.2,0.11-0.32
			c-0.02-0.14-0.12-0.29-0.26-0.43l2.07-4.4c0.21,0.06,0.44,0.09,0.67,0.09c1.44,0,2.61-1.17,2.61-2.61
			C510.57,117.33,509.4,116.17,507.96,116.17z"/>
		<polygon points="484.88,96.97 482.61,92.96 482.59,93 482.43,93.28 480.18,97.09 480.57,97.1 484.97,97.13 		"/>
		<polygon points="500.05,97.2 500.02,97.15 497.93,93.46 497.69,93.03 497.6,93.18 495.37,96.97 495.26,97.16 		"/>
		<circle cx="483.21" cy="105.26" r="1.3"/>
		<circle cx="497.74" cy="105.26" r="1.44"/>
		<path d="M491.78,112.33c0-0.02-0.39-0.02-0.84-0.22c-0.04-0.02-0.08-0.03-0.12-0.05c-0.01,0-0.01-0.01-0.02-0.01
			c-0.44-0.23-0.74-0.55-0.94-0.81l0.08-1.12c0.27-0.08,0.47-0.38,0.47-0.73c0-0.42-0.28-0.75-0.62-0.75
			c-0.34,0-0.62,0.34-0.62,0.75c0,0.31,0.15,0.57,0.37,0.69l0.07,1.16c-0.17,0.26-0.44,0.6-0.84,0.82
			c-0.44,0.25-0.84,0.26-0.84,0.27c0,0.03,0.71,0.13,1.2-0.27c0.33-0.28,0.54-0.74,0.59-1.28c0.06,0.54,0.3,1,0.68,1.28
			c0.16,0.12,0.35,0.2,0.53,0.24c0.12,0.03,0.24,0.05,0.35,0.06C491.57,112.37,491.78,112.34,491.78,112.33z M489.73,110.23
			c0-0.04-0.01-0.07-0.01-0.11c0.01,0,0.02,0,0.02,0C489.73,110.16,489.73,110.2,489.73,110.23z"/>
		<rect x="482.66" y="106.91" transform="matrix(0.3256 -0.9455 0.9455 0.3256 222.6122 530.0354)" width="0.41" height="4.11"/>
		<rect x="480.65" y="113.41" transform="matrix(0.9368 -0.3498 0.3498 0.9368 -9.2434 176.0498)" width="4.11" height="0.41"/>
		<rect x="480.52" y="111.07" transform="matrix(0.9983 -0.0574 0.0574 0.9983 -5.5951 27.9018)" width="4.11" height="0.41"/>
		<polygon points="498.5,108.07 495.21,109.41 495.32,109.8 498.61,108.46 		"/>
		<polygon points="495.35,113.05 498.61,114.49 498.73,114.11 495.47,112.67 		"/>
		<polygon points="495.41,111.34 498.88,111.57 498.9,111.16 495.43,110.93 		"/>
		<path d="M465.39,135.98c-1.09,0.13-1.93,0.22-2.11,0.74c-0.32,0.95,1.7,2.83,4.72,4.42c1.44,0.76,3.1,1.46,4.84,1.95
			c1.56,0.45,3.19,0.73,4.77,0.76c1.24,0.02,1.47-0.13,1.55-0.3c0.03-0.06,0.04-0.14,0.04-0.22c-0.01-0.5-0.55-1.34-1.46-2.29
			C475.35,138.58,470.38,135.41,465.39,135.98z"/>
		<path d="M505.08,125.63c-0.11-0.15-0.26-0.34-0.48-0.55c-0.38-0.36-0.97-0.77-1.85-1.1v0.02v2.03c0.06,0.06,0.14,0.11,0.22,0.17
			c0.31,0.23,0.74,0.46,1.29,0.51c0.16,0.01,0.93,0.08,1.1-0.27c0,0,0,0,0,0C505.39,126.37,505.45,126.15,505.08,125.63z"/>
		<path d="M483.16,123.02c-0.12,0.66-0.16,1.4,0,2.19c0.09,0.46,0.21,1.06,0.49,1.1c0.35,0.04,0.79-0.78,0.98-1.37
			c0.27-0.84,0.14-1.59,0-2.06L483.16,123.02z"/>
	</g>
	<g>
		<polygon class="st2" points="530.5,153.48 524.62,131.24 423.52,158 236,158 236,66 213,66 213,158 0,158 0,267 452,267 
			452,174.26 		"/>
		<polygon class="st3" points="313,66 313,0 135,0 135,66 213,66 236,66 		"/>
	</g>
</g>
<g id="Laag_1">
	<ellipse class="st4" cx="228.65" cy="208.93" rx="46.65" ry="46.93"/>
	<path class="st5" d="M228.65,204.39"/>
	<g>
		<path class="st6" d="M258.58,208.65c-1.72-2.19-6.56-1.58-7.95,1c-1.62,3.01,1.48,8.71-0.57,10.7c-0.08,0.08-0.16,0.14-0.24,0.2
			c0.06,0.04,0.12,0.09,0.17,0.14c1.49,1.27,1.21,3.9,1.12,4.62c0.52-0.16,1.03-0.37,1.5-0.61
			C257.99,221.89,261.05,211.8,258.58,208.65z"/>
		<path class="st7" d="M250,220.7c-0.06-0.05-0.11-0.09-0.17-0.14c-0.99-0.74-2.34-0.89-3.78-0.55v-28.37c0-3.79-2.8-6.93-6.47-7.53
			l-5.62,0.04l0.07-0.14h-13.36l0.07,0.15l-5.69,0.04c-3.46,0.76-6.05,3.81-6.05,7.45v28.98c-2.02-0.67-3.94-0.5-5.11,0.66
			c-2.03,2-1.09,6.18,2.11,9.33c2.65,2.62,6.03,3.7,8.25,2.84c0.78,0.26,1.62,0.41,2.5,0.41h21.55c0.82,0,1.6-0.13,2.34-0.36
			c2.37,0.43,5.94-1.36,7.94-3.35c0.65-0.65,2.23-2.26,2.54-4.79c0-0.01,0-0.03,0-0.04C251.21,224.6,251.49,221.97,250,220.7z"/>
		<polygon class="st8" points="220.67,184 217.57,177.82 214.47,184.19 215.06,184.19 220.75,184.15 		"/>
		<polygon class="st8" points="239.58,184.11 240.23,184.1 237.05,177.78 234.03,184 233.96,184.14 		"/>
	</g>
	<g>
		<g>
			<path class="st9" d="M203.2,176.56c0.36-0.5,0.81-1.07,1.34-1.64c0.96-1.03,1.76-1.55,2.39-1.7c0.64-0.15,1.15,0.03,1.47,0.6
				c0.32,0.58,0.33,1.29,0.06,2.03c-0.27,0.75-0.9,1.64-1.8,2.62c-0.42,0.47-0.78,0.86-1.09,1.18
				C204.62,178.42,204.15,177.8,203.2,176.56z M205.91,178.66c0.16-0.15,0.39-0.39,0.63-0.65c1.29-1.4,1.72-2.59,1.17-3.54
				c-0.48-0.83-1.52-0.74-2.91,0.75c-0.34,0.37-0.58,0.67-0.73,0.89C204.81,177.13,205.17,177.64,205.91,178.66z"/>
			<path class="st9" d="M210.02,173.46c0.34,0.64,1.05,0.45,1.73-0.04c0.49-0.35,0.76-0.61,0.98-0.86c0.11,0.11,0.16,0.17,0.27,0.28
				c-0.21,0.24-0.58,0.6-1.17,1.02c-1.14,0.82-2.07,0.87-2.49,0.08c-0.42-0.79-0.07-2,1.1-2.84c1.3-0.95,1.99-0.34,2.2,0.17
				c0.04,0.1,0.06,0.19,0.07,0.25C211.62,172.23,211.08,172.62,210.02,173.46z M211.9,171.6c-0.13-0.32-0.54-0.7-1.35-0.11
				c-0.72,0.53-0.81,1.24-0.7,1.61C210.66,172.47,211.07,172.17,211.9,171.6z"/>
			<path class="st9" d="M216.04,169.42c0.01,0,0.01,0,0.02-0.01c0.07-0.15,0.18-0.35,0.27-0.5c0.37-0.63,0.56-0.94,0.95-1.56
				c0.38-0.15,0.56-0.23,0.94-0.36c-0.55,0.74-0.81,1.12-1.32,1.88c0.92,0.38,1.37,0.59,2.24,1.04c-0.36,0.13-0.53,0.19-0.89,0.34
				c-0.7-0.35-1.05-0.52-1.78-0.82c-0.12,0.19-0.17,0.29-0.29,0.48c0.13,0.44,0.2,0.66,0.33,1.1c-0.28,0.13-0.42,0.2-0.7,0.35
				c-0.55-1.7-0.83-2.55-1.38-4.25c0.31-0.16,0.47-0.24,0.78-0.39C215.54,167.8,215.71,168.34,216.04,169.42z"/>
			<path class="st9" d="M219.88,165.53c0.04,0.18-0.13,0.39-0.45,0.5c-0.28,0.09-0.51,0.01-0.55-0.18
				c-0.04-0.19,0.14-0.42,0.43-0.51C219.62,165.24,219.84,165.34,219.88,165.53z M219.8,169.69c-0.26-1.21-0.38-1.82-0.64-3.03
				c0.32-0.1,0.47-0.15,0.79-0.25c0.23,1.22,0.35,1.83,0.58,3.04C220.24,169.54,220.09,169.59,219.8,169.69z"/>
			<path class="st9" d="M222.11,164.94c0.05,0.35,0.07,0.53,0.12,0.89c0.46-0.1,0.69-0.14,1.15-0.22c0.02,0.17,0.03,0.26,0.05,0.43
				c-0.46,0.08-0.69,0.12-1.14,0.22c0.09,0.67,0.14,1,0.23,1.66c0.05,0.38,0.23,0.56,0.65,0.48c0.2-0.04,0.34-0.08,0.43-0.12
				c0.03,0.17,0.05,0.25,0.08,0.42c-0.14,0.07-0.36,0.14-0.65,0.2c-0.35,0.07-0.64,0.04-0.84-0.06c-0.23-0.12-0.36-0.37-0.41-0.73
				c-0.1-0.67-0.16-1.01-0.26-1.68c-0.27,0.07-0.4,0.1-0.67,0.17c-0.03-0.17-0.04-0.25-0.07-0.42c0.27-0.07,0.41-0.11,0.68-0.17
				c-0.05-0.29-0.07-0.44-0.11-0.74C221.65,165.13,221.8,165.07,222.11,164.94z"/>
			<path class="st9" d="M225.21,164.45c0.02,0.36,0.04,0.54,0.06,0.89c0.46-0.05,0.7-0.07,1.16-0.1c0.01,0.17,0.01,0.26,0.02,0.43
				c-0.46,0.03-0.69,0.05-1.15,0.1c0.04,0.67,0.07,1.01,0.11,1.68c0.03,0.39,0.19,0.59,0.61,0.55c0.2-0.02,0.35-0.05,0.44-0.07
				c0.02,0.17,0.03,0.25,0.05,0.42c-0.14,0.05-0.37,0.1-0.66,0.13c-0.35,0.03-0.64-0.03-0.83-0.15c-0.22-0.14-0.33-0.41-0.36-0.77
				c-0.06-0.68-0.09-1.02-0.14-1.7c-0.27,0.04-0.41,0.06-0.68,0.1c-0.02-0.17-0.03-0.26-0.04-0.43c0.28-0.04,0.41-0.06,0.69-0.1
				c-0.03-0.3-0.04-0.45-0.06-0.75C224.73,164.59,224.89,164.54,225.21,164.45z"/>
			<path class="st9" d="M227.75,166.87c0.02,0.77,0.69,1.07,1.45,1.1c0.54,0.02,0.87-0.03,1.17-0.09c0.04,0.17,0.06,0.25,0.11,0.42
				c-0.27,0.07-0.73,0.13-1.39,0.11c-1.28-0.04-2.05-0.62-2.08-1.57c-0.03-0.94,0.75-1.74,2.05-1.7c1.46,0.04,1.79,1.01,1.76,1.58
				c-0.01,0.12-0.03,0.2-0.04,0.26C229.56,166.87,228.96,166.85,227.75,166.87z M230.05,166.52c0.02-0.36-0.17-0.95-1.08-0.98
				c-0.81-0.02-1.17,0.52-1.23,0.92C228.67,166.44,229.14,166.45,230.05,166.52z"/>
			<path class="st9" d="M231.82,166.28c0.03-0.32,0.04-0.59,0.03-0.85c0.29,0.04,0.43,0.06,0.72,0.1c0,0.21,0,0.31-0.01,0.52
				c0.01,0,0.01,0,0.02,0c0.25-0.26,0.79-0.47,1.52-0.31c0.61,0.13,1.51,0.63,1.33,1.68c-0.13,0.73-0.19,1.1-0.31,1.83
				c-0.3-0.08-0.44-0.12-0.74-0.19c0.11-0.71,0.16-1.06,0.27-1.77c0.08-0.5-0.12-0.98-0.87-1.13c-0.53-0.11-0.96,0.09-1.13,0.38
				c-0.04,0.06-0.07,0.16-0.08,0.25c-0.08,0.75-0.11,1.12-0.19,1.87c-0.3-0.05-0.45-0.07-0.75-0.11
				C231.7,167.64,231.74,167.18,231.82,166.28z"/>
			<path class="st9" d="M236.28,169.58c0.06-0.2,0.14-0.5,0.19-0.77c0.3-1.47,0.45-2.2,0.75-3.66c0.32,0.1,0.49,0.16,0.81,0.27
				c-0.17,0.76-0.25,1.14-0.42,1.89c0.01,0,0.01,0,0.02,0.01c0.35-0.24,0.9-0.28,1.59,0.01c1.06,0.44,1.61,1.41,1.33,2.29
				c-0.33,1.04-1.37,1.13-2.25,0.77c-0.58-0.23-1-0.57-1.21-1.07c-0.01,0-0.01-0.01-0.02-0.01c-0.06,0.19-0.09,0.29-0.14,0.49
				C236.66,169.71,236.54,169.66,236.28,169.58z M237.31,168.63c-0.02,0.07-0.01,0.14-0.01,0.21c0.06,0.43,0.43,0.84,0.96,1.05
				c0.77,0.31,1.35,0.06,1.54-0.61c0.17-0.59-0.12-1.3-0.94-1.63c-0.53-0.21-1.08-0.13-1.33,0.23c-0.03,0.06-0.07,0.12-0.09,0.21
				C237.39,168.3,237.36,168.41,237.31,168.63z"/>
			<path class="st9" d="M245.05,172.31c-0.46,1.01-1.6,0.77-2.53,0.21c-1.03-0.63-1.66-1.61-1.35-2.52
				c0.32-0.97,1.43-1.07,2.56-0.38C244.91,170.34,245.42,171.47,245.05,172.31z M241.91,170.37c-0.22,0.63,0.11,1.37,0.79,1.78
				c0.67,0.41,1.35,0.29,1.62-0.33c0.2-0.47,0.12-1.3-0.75-1.84C242.69,169.45,242.1,169.82,241.91,170.37z"/>
			<path class="st9" d="M249.26,175.86c-0.57,0.91-1.7,0.44-2.56-0.3c-0.96-0.83-1.48-1.92-1.07-2.77c0.43-0.9,1.55-0.79,2.61,0.13
				C249.34,173.87,249.73,175.11,249.26,175.86z M246.33,173.31c-0.29,0.58-0.05,1.38,0.59,1.93c0.62,0.54,1.32,0.56,1.66,0
				c0.25-0.42,0.26-1.27-0.55-1.98C247.21,172.55,246.58,172.8,246.33,173.31z"/>
			<path class="st9" d="M252.11,175.68c-0.19,0.27-0.29,0.4-0.48,0.67c0.37,0.41,0.55,0.62,0.91,1.06c-0.1,0.13-0.14,0.19-0.24,0.31
				c-0.36-0.43-0.54-0.64-0.91-1.05c-0.36,0.5-0.54,0.76-0.89,1.26c-0.21,0.29-0.2,0.58,0.13,0.97c0.16,0.18,0.28,0.3,0.37,0.38
				c-0.08,0.14-0.12,0.2-0.21,0.34c-0.14-0.1-0.34-0.29-0.56-0.55c-0.28-0.32-0.46-0.63-0.52-0.9c-0.08-0.31-0.01-0.59,0.18-0.87
				c0.35-0.52,0.53-0.78,0.88-1.3c-0.22-0.24-0.33-0.35-0.56-0.58c0.09-0.13,0.13-0.2,0.22-0.34c0.23,0.23,0.34,0.35,0.56,0.59
				c0.15-0.23,0.23-0.34,0.39-0.57C251.68,175.32,251.82,175.43,252.11,175.68z"/>
		</g>
		<g>
		</g>
	</g>
	<g>
		<ellipse class="st10" cx="219.04" cy="192.28" rx="1.43" ry="1.41"/>
		<ellipse class="st10" cx="237.45" cy="192.28" rx="1.43" ry="1.41"/>
		<path class="st5" d="M229.47,200.35c0,0-0.03,0.51-1.02,1.01c0,0,0,0,0,0l0,0c0,0,0,0,0,0c-0.04-0.02-0.96-0.48-1.02-1.01
			c-0.04-0.39,0.37-1.01,1.02-1.01S229.52,199.96,229.47,200.35z"/>
		<path class="st11" d="M228.45,201.36c0,2.23-1.83,4.04-4.09,4.04"/>
		<path class="st11" d="M228.45,201.36c0,2.23,1.65,4.04,3.68,4.04"/>
		<line class="st11" x1="216.99" y1="198.53" x2="210.65" y2="195.51"/>
		<line class="st11" x1="211.9" y1="201.87" x2="217.78" y2="201.66"/>
		<line class="st11" x1="238.52" y1="198.54" x2="244.6" y2="195.52"/>
		<line class="st11" x1="244.42" y1="201.88" x2="238.78" y2="201.67"/>
	</g>
</g>
</svg>
